<?xml version="1.0" encoding="UTF-8"?>
<svg id="Layer_2" data-name="Layer 2" xmlns="http://www.w3.org/2000/svg" viewBox="0 0 170.57 85.95">
  <defs>
    <style>
      .cls-1 {
        fill-rule: evenodd;
      }
    </style>
  </defs>
  <g id="Layer_1-2" data-name="Layer 1-2">
    <path class="cls-1" d="M148.46,49.35s0-.04-.04-.04h-38.83c-.76,0-1.53.08-2.25.3-3.66,1.11-5.88,4.35-5.88,7.82v.02c-.03,9.21,7.64,16.8,16.78,16.77,15.06-.04,27.46-10.66,30.23-24.87h-.01ZM89.71,57.42v-.02c0-5.26,2.1-10.31,5.83-14.03,3.73-3.72,8.78-5.81,14.05-5.81h39.11s.04-.02.04-.04c-1.13-10.46-5.31-19.99-11.6-27.73-1.78-2.19-2-5.38-.23-7.57,2.43-3,6.83-2.89,9.14-.07,8.05,9.81,13.31,21.99,14.49,35.38,0,.02.02.03.04.03h3.9c3,0,5.69,2.15,6.05,5.13.44,3.57-2.34,6.61-5.82,6.61h-4.29s-.03,0-.04.03c-2.89,20.74-20.51,36.56-42.1,36.62-15.55.04-28.59-12.87-28.55-28.54h-.02Z"/>
    <path class="cls-1" d="M22.12,49.35s.01-.04.04-.04h38.83c.76,0,1.53.08,2.25.3,3.66,1.11,5.88,4.35,5.88,7.82v.02c.03,9.21-7.64,16.8-16.78,16.77-15.06-.04-27.46-10.66-30.23-24.87h.01ZM80.87,57.42v-.02c0-5.26-2.1-10.31-5.83-14.03-3.73-3.72-8.78-5.81-14.05-5.81H21.88s-.04-.02-.04-.04c1.13-10.46,5.31-19.99,11.6-27.73,1.78-2.19,2-5.38.23-7.57-2.43-3-6.83-2.89-9.14-.07-8.05,9.81-13.31,21.99-14.49,35.38,0,.02-.02.03-.04.03h-3.9c-3,0-5.69,2.15-6.05,5.13-.44,3.57,2.34,6.61,5.82,6.61h4.29s.03,0,.04.03c2.89,20.74,20.51,36.56,42.1,36.62,15.55.04,28.59-12.87,28.55-28.54h.02Z"/>
  </g>
</svg>